<svg width="45" height="43" viewBox="0 0 45 43" fill="none" xmlns="http://www.w3.org/2000/svg">
<g clip-path="url(#clip0_2000_674)">
<path fill-rule="evenodd" clip-rule="evenodd" d="M30.7415 20.0659C30.6388 20.0659 30.6217 20.0828 30.5019 20.0659C29.783 18.9521 28.619 17.1295 27.7803 15.8469C27.4551 16.3194 27.1641 16.7413 26.8903 17.1463C26.8903 17.1463 26.8903 17.1463 26.8731 17.1632C26.0687 18.3952 25.3155 19.4584 24.9561 19.8465C24.9732 19.7959 25.4011 19.0365 25.9317 18.1252C25.7434 17.4839 25.5723 16.927 25.4353 16.3701C24.8534 13.8218 24.2714 11.2735 23.7065 8.72524C23.6723 8.59023 23.3642 7.40891 23.2273 7.07139C23.1588 7.27391 22.9876 8.20208 22.9534 8.33709C22.6795 9.40028 22.457 10.4635 22.1831 11.5435C21.8922 12.708 21.1048 15.6444 20.6426 17.062C21.3958 18.412 22.2174 19.9309 22.2516 20.0321C22.166 20.0321 22.0976 20.0321 22.0291 20.0321C21.4814 19.1546 19.5814 16.3194 19.3931 16.1169C19.1877 16.3194 17.1337 19.2896 16.5688 19.914C16.6031 19.779 19.376 15.0368 19.4616 15.0368C19.5129 15.0368 20.0264 15.9313 20.6084 16.9776C21.1561 13.3324 22.6624 7.32453 23.193 3.88184C23.2786 3.88184 23.2786 3.88184 23.3813 3.88184C23.6723 5.29942 24.0146 7.44267 24.3056 8.84337C24.5966 10.261 26.12 17.6357 26.1885 17.6526C26.2398 17.5682 26.2741 17.5007 26.3254 17.4164C26.411 17.2814 26.4966 17.1463 26.565 16.9945C26.9758 16.3025 27.438 15.5263 27.8488 14.8175C28.6875 16.3701 29.9713 18.6314 30.7415 20.0659Z" fill="#195A9E"/>
<path d="M12.4095 21.9219H18.8282V22.1581C18.349 22.175 18.0409 22.2594 17.9211 22.3944C17.7841 22.5294 17.7328 22.8332 17.7328 23.3057V29.0942C17.7328 29.4654 17.7499 29.7186 17.8012 29.8536C17.8526 30.0055 17.9553 30.1236 18.1265 30.208C18.2976 30.2924 18.5373 30.343 18.8282 30.343V33.1106H18.6228C18.5715 32.3681 18.3319 31.7606 17.8868 31.288C17.4418 30.8155 16.8427 30.5792 16.0553 30.5792H13.95C13.1455 30.5792 12.5122 30.7986 12.0329 31.2374C11.5536 31.6762 11.2626 32.3006 11.1942 33.1106H10.9888V30.343C11.9302 30.1405 12.6149 29.4317 13.0085 28.2166C13.4194 27.0015 13.6248 25.3814 13.6248 23.3563C13.6248 22.8669 13.5563 22.5463 13.4022 22.3944C13.2482 22.2425 12.923 22.1581 12.4266 22.1581V21.9219H12.4095ZM16.0553 22.4788H14.104V23.2213C14.104 24.2676 14.0356 25.2802 13.9157 26.259C13.7959 27.2378 13.6248 28.0141 13.4022 28.5879C13.1797 29.1448 12.8887 29.6342 12.5293 30.0223H15.3022C15.6788 30.0223 15.9013 29.9886 15.9698 29.938C16.0382 29.8873 16.0725 29.7017 16.0725 29.3811V22.4788H16.0553Z" fill="#195A9E"/>
<path d="M26.8214 21.8711V24.9763H26.5989C26.4277 24.1662 26.1196 23.5418 25.6746 23.103C25.2296 22.6643 24.7161 22.4449 24.1512 22.4449C23.6719 22.4449 23.244 22.6136 22.8503 22.9343C22.4567 23.2549 22.1657 23.6768 21.9774 24.2C21.7377 24.875 21.6179 25.6176 21.6179 26.4276C21.6179 27.2377 21.7035 27.9633 21.8747 28.6215C22.0458 29.2797 22.3197 29.7859 22.6792 30.1235C23.0386 30.461 23.5179 30.6804 24.0999 30.6297C25.3323 30.5285 25.9998 28.6046 26.0169 27.7608H26.5818C26.5304 28.5877 26.171 29.9884 25.1269 30.8154C24.699 31.136 24.3395 31.271 23.7233 31.271C22.9188 31.271 22.1828 31.0854 21.5666 30.6972C20.9333 30.3091 20.454 29.7522 20.1116 29.0434C19.7693 28.3177 19.5981 27.5583 19.5981 26.7483C19.5981 25.8876 19.7864 25.0775 20.163 24.3012C20.5396 23.5249 21.0531 22.9343 21.7035 22.5124C22.354 22.0905 23.0386 21.8711 23.7575 21.8711C24.2881 21.8711 24.853 22.0061 25.4521 22.2761C25.7944 22.428 26.0169 22.5124 26.1025 22.5124C26.2223 22.5124 26.325 22.4618 26.4106 22.3605C26.4962 22.2592 26.5476 22.0905 26.5818 21.8711H26.8214Z" fill="#195A9E"/>
<path d="M8.93464 41.5827V41.3633C9.17427 41.3633 9.32832 41.2958 9.41391 41.1776C9.49949 41.0595 9.55084 40.8232 9.55084 40.4688V36.5705H9.0031C8.62653 36.5705 8.35267 36.638 8.21573 36.773C8.06168 36.908 7.95898 37.178 7.8734 37.5999H7.65088V36.1992H13.0598V37.5999H12.8373C12.7688 37.2118 12.6661 36.9586 12.5292 36.7899C12.3922 36.638 12.1184 36.5536 11.7076 36.5536H11.1598V40.5026C11.1598 40.857 11.2112 41.0933 11.2968 41.2114C11.3823 41.3295 11.5364 41.3802 11.776 41.3802V41.5995H8.93464V41.5827Z" fill="#195A9E"/>
<path d="M16.0728 36.0811C16.5521 36.0811 16.98 36.1992 17.3908 36.4354C17.8016 36.6717 18.1097 37.0092 18.3151 37.4649C18.5205 37.9037 18.6232 38.3931 18.6232 38.9162C18.6232 39.6756 18.435 40.3169 18.0413 40.8232C17.562 41.4476 16.9116 41.7514 16.09 41.7514C15.2683 41.7514 14.6521 41.4645 14.2071 40.9076C13.7621 40.3507 13.5396 39.6925 13.5396 38.95C13.5396 38.1906 13.7621 37.5155 14.2071 36.9417C14.6693 36.3679 15.2855 36.0811 16.0728 36.0811ZM16.1071 36.4861C15.9017 36.4861 15.7476 36.5536 15.5936 36.7055C15.4566 36.8574 15.3539 37.1442 15.3197 37.583C15.2683 38.0218 15.2512 38.6125 15.2512 39.3888C15.2512 39.7938 15.2855 40.1819 15.3368 40.5363C15.371 40.8063 15.4737 41.0088 15.6107 41.1607C15.7476 41.2957 15.9017 41.3801 16.09 41.3801C16.2611 41.3801 16.4152 41.3295 16.5179 41.2451C16.6719 41.1101 16.7746 40.9413 16.826 40.7051C16.9116 40.3507 16.9458 39.6081 16.9458 38.5112C16.9458 37.8699 16.9116 37.4143 16.8431 37.178C16.7746 36.9417 16.6548 36.7561 16.5179 36.6548C16.3981 36.5367 16.2611 36.4861 16.1071 36.4861Z" fill="#195A9E"/>
<path d="M22.2517 41.5827V41.3633C22.44 41.3633 22.6112 41.3126 22.731 41.2283C22.8508 41.1439 22.9193 40.9414 22.9193 40.6207V36.5874H21.3959V38.9331C21.3959 39.7769 21.3617 40.3507 21.2761 40.6714C21.1905 40.992 21.0193 41.2451 20.7797 41.4139C20.54 41.5827 20.2833 41.667 20.0094 41.667C19.7013 41.667 19.4446 41.5827 19.2563 41.397C19.068 41.2114 18.9824 40.992 18.9824 40.7557C18.9824 40.5195 19.0509 40.3338 19.1878 40.182C19.3248 40.0301 19.4959 39.9626 19.7184 39.9626C20.1292 39.9626 20.3346 40.2157 20.3346 40.7051C20.3346 40.9245 20.386 41.0426 20.4716 41.0426C20.6427 41.0426 20.7797 40.9076 20.8653 40.6207C20.9509 40.3507 21.0022 39.7769 21.0022 38.9163V37.3637C21.0022 37.0093 20.9509 36.773 20.8653 36.638C20.7626 36.503 20.6085 36.4355 20.3689 36.4186V36.1992H25.1445V36.4186C24.7508 36.4186 24.5625 36.6717 24.5625 37.1443V40.587C24.5625 40.857 24.5967 41.0426 24.6823 41.1608C24.7679 41.2789 24.9219 41.3464 25.1445 41.3464V41.5658H22.2517V41.5827Z" fill="#195A9E"/>
<path d="M29.2356 41.5824V41.363C29.578 41.363 29.7491 41.1099 29.7491 40.6036V37.9878L28.1915 40.6036C28.1915 41.1099 28.3798 41.363 28.7221 41.363V41.5824H25.9663V41.363C26.1889 41.363 26.3429 41.2955 26.4285 41.1774C26.5141 41.0592 26.5654 40.8398 26.5654 40.5361V37.2453C26.5654 36.7052 26.36 36.4521 25.9492 36.4521V36.2327H28.705V36.4521C28.4996 36.4521 28.3627 36.5196 28.2942 36.6208C28.2258 36.7221 28.1744 36.9415 28.1744 37.2453V39.8442L29.732 37.1946C29.732 36.9077 29.6807 36.7221 29.6122 36.604C29.5266 36.4858 29.4068 36.4352 29.2185 36.4352V36.2158H31.9743V36.4352C31.7689 36.4352 31.6149 36.4858 31.5122 36.5871C31.4095 36.6883 31.3581 36.874 31.3581 37.1609V40.5698C31.3581 40.8905 31.4095 41.093 31.4951 41.2111C31.5806 41.3124 31.7518 41.363 31.9743 41.363V41.5824H29.2356Z" fill="#195A9E"/>
<path d="M38.8381 41.3796V42.9997H38.6156C38.5814 42.5609 38.4273 42.2065 38.1363 41.9703C37.8625 41.7171 37.3661 41.599 36.6472 41.599H32.7959V41.3796C33.0355 41.3796 33.1896 41.3121 33.2752 41.194C33.3607 41.0758 33.4121 40.8396 33.4121 40.4683V37.2956C33.4121 36.9075 33.3607 36.6712 33.2752 36.5868C33.1725 36.5024 33.0184 36.4518 32.813 36.4518V36.2324H35.5688V36.4518C35.3634 36.4518 35.2265 36.5024 35.158 36.5868C35.0724 36.6712 35.0382 36.8906 35.0382 37.245V40.3839C35.0382 40.7552 35.0724 40.9915 35.158 41.0927C35.2436 41.194 35.4148 41.2446 35.6886 41.2446H35.9967C36.2364 41.2446 36.4075 41.194 36.476 41.1096C36.5616 41.0252 36.5958 40.7889 36.5958 40.4177V37.3125C36.5958 36.9581 36.5616 36.7218 36.4931 36.6206C36.4247 36.5193 36.2877 36.4687 36.0823 36.4687V36.2493H38.8381V36.4687C38.6156 36.4687 38.4444 36.5362 38.3588 36.6543C38.2733 36.7725 38.2219 36.975 38.2219 37.2619V40.502C38.2219 40.8564 38.2561 41.0927 38.3417 41.2108C38.4273 41.3121 38.5814 41.3796 38.8381 41.3796Z" fill="#195A9E"/>
<path d="M42.6383 40.8063C41.9707 41.3801 41.3888 41.667 40.8581 41.667C40.55 41.667 40.2933 41.5657 40.0879 41.3632C39.8825 41.1607 39.7798 40.9076 39.7798 40.6038C39.7798 40.1988 39.951 39.8275 40.3104 39.5069C40.6699 39.1862 41.4401 38.7475 42.6383 38.2074V37.6674C42.6383 37.2624 42.6212 37.0092 42.5698 36.908C42.5185 36.8067 42.4329 36.7055 42.3131 36.638C42.1933 36.5536 42.0563 36.5198 41.9023 36.5198C41.6455 36.5198 41.4401 36.5705 41.2861 36.6886C41.1834 36.7561 41.132 36.8405 41.132 36.9249C41.132 37.0092 41.1834 37.1105 41.2861 37.2286C41.4401 37.3974 41.5086 37.5493 41.5086 37.7011C41.5086 37.8868 41.4401 38.0387 41.3032 38.1737C41.1662 38.3087 40.978 38.3762 40.7554 38.3762C40.5158 38.3762 40.3104 38.3087 40.1392 38.1568C39.9681 38.0049 39.8996 37.8362 39.8996 37.6505C39.8996 37.3805 40.0023 37.1105 40.2248 36.8573C40.4473 36.6042 40.7554 36.4186 41.1491 36.2836C41.5428 36.1486 41.9536 36.0811 42.3815 36.0811C42.895 36.0811 43.3058 36.1823 43.5968 36.4017C43.8878 36.6211 44.0932 36.8573 44.1788 37.1105C44.2302 37.2624 44.2644 37.6336 44.2644 38.2074V40.2832C44.2644 40.5194 44.2815 40.6882 44.2986 40.7388C44.3157 40.8063 44.35 40.8401 44.3842 40.8738C44.4184 40.9076 44.4698 40.9245 44.5211 40.9245C44.6238 40.9245 44.7265 40.857 44.8292 40.7051L45.0004 40.8401C44.8121 41.127 44.6067 41.3295 44.4013 41.4476C44.1959 41.5826 43.9563 41.6332 43.6995 41.6332C43.3914 41.6332 43.1518 41.5657 42.9806 41.4139C42.7923 41.3126 42.6896 41.0932 42.6383 40.8063ZM42.6383 40.3844V38.5956C42.1761 38.8656 41.8167 39.1525 41.5942 39.4731C41.4401 39.6756 41.3716 39.895 41.3716 40.0975C41.3716 40.2663 41.4401 40.4351 41.5599 40.5532C41.6626 40.6544 41.7996 40.7051 41.9707 40.7051C42.159 40.7051 42.3815 40.6038 42.6383 40.3844Z" fill="#195A9E"/>
<path d="M36.493 30.0735V30.6135L36.1849 30.5966L35.1579 30.5629C34.884 30.5629 32.5219 30.681 32.5048 30.6135C32.5048 30.4279 32.4877 30.2929 32.5048 30.1072C32.5048 30.0228 33.4633 30.2085 33.4976 30.0566C33.566 29.8035 31.7516 26.6814 31.3408 25.9557L30.6219 26.6645C30.6219 26.732 30.6219 26.8333 30.6219 26.9345L30.6391 28.8753C30.6391 29.4491 30.6733 29.7697 30.7075 29.8541C30.7246 29.9047 30.776 29.9553 30.8273 29.9891C30.9129 30.0228 31.1697 30.0566 31.6318 30.0903V30.6304C31.067 30.5966 30.4336 30.5797 29.749 30.5797C29.4066 30.5797 28.8076 30.5966 27.9517 30.6304V30.0903C28.4139 30.0566 28.6877 30.0228 28.7391 29.9891C28.7733 29.9722 28.8076 29.9385 28.8247 29.9047C28.8589 29.8372 28.8931 29.7191 28.9103 29.5166C28.9445 29.179 28.9787 28.5546 28.9787 27.6602V25.2638C28.9787 24.5044 28.9616 23.8631 28.9445 23.3399C28.9274 22.8337 28.8931 22.5299 28.8589 22.4455C28.8418 22.3949 28.7904 22.3443 28.7391 22.3105C28.6535 22.2768 28.3796 22.243 27.9175 22.2093V21.6692C28.6022 21.703 29.2184 21.7198 29.7661 21.7198C30.4165 21.7198 31.0327 21.703 31.6147 21.6692V22.2093C31.1354 22.243 30.8445 22.2936 30.776 22.3443C30.7075 22.3949 30.6562 22.5299 30.6391 22.7493C30.6219 23.0193 30.6048 24.0825 30.6048 25.9557H30.6904C30.7589 25.8882 30.8273 25.8207 30.9129 25.7532L31.2039 25.4663C31.5291 25.1457 31.9057 24.7238 32.3678 24.2175C33.0868 23.4074 33.6516 22.7324 34.0453 22.1924L32.5561 22.1586L32.539 21.6523C32.539 21.6523 34.884 21.703 35.175 21.703C35.4831 21.703 35.8254 21.6861 36.2191 21.6523V22.1924L35.8939 22.2261C35.6372 22.2599 35.466 22.2936 35.3804 22.3274C35.2264 22.3949 35.021 22.5636 34.7642 22.7999C34.3876 23.1543 33.9084 23.6437 33.3093 24.2512L32.4705 25.1288C32.8642 25.7532 34.302 28.0146 35.0381 28.9428C35.5345 29.5672 35.8254 29.9047 35.9281 29.9722C36.0137 30.0228 36.202 30.0566 36.493 30.0735Z" fill="#195A9E"/>
<path d="M43.9045 33.1445V34.039H6.94941V35.9966H6.74401C6.58996 35.254 6.29897 34.6802 5.85394 34.2752C5.76835 34.1908 5.66565 34.1065 5.56295 34.039C5.2035 33.8027 4.80981 33.6677 4.38189 33.6677C3.97109 33.6677 3.57741 33.7858 3.23507 34.039C3.20084 34.0727 3.1666 34.0896 3.11525 34.1233C2.73868 34.4271 2.4477 34.8153 2.27653 35.2878C2.05401 35.8953 1.9342 36.5872 1.9342 37.3298C1.9342 38.0723 2.01978 38.7474 2.19095 39.3549C2.36211 39.9624 2.61887 40.4181 2.9612 40.7387C3.32065 41.0425 3.76569 41.245 4.33054 41.2113C5.52872 41.11 6.16204 39.3549 6.17916 38.5617H6.72689C6.67554 39.3211 6.33321 40.6037 5.32332 41.3631C4.91251 41.6669 4.55306 41.785 3.97109 41.785C3.18372 41.785 2.49905 41.6163 1.88285 41.2619C1.28376 40.9075 0.804488 40.4012 0.47927 39.743C0.171168 39.0511 0 38.3423 0 37.5998C0 36.8066 0.188285 36.0641 0.547737 35.3553C0.907189 34.6465 1.40358 34.0896 2.01978 33.7014C2.63598 33.3133 3.30354 33.1445 3.98821 33.1445C4.12514 33.1445 4.24496 33.1445 4.38189 33.1445H43.9045Z" fill="#195A9E"/>
<path fill-rule="evenodd" clip-rule="evenodd" d="M21.5161 1.43418C21.5675 1.43418 21.6017 1.43418 21.653 1.43418C22.0125 1.43418 22.3548 1.41731 22.7143 1.41731C22.7656 1.41731 22.8341 1.41731 22.8855 1.41731C22.9197 1.41731 22.9197 1.40043 22.9368 1.38356C23.108 0.94478 23.262 0.489129 23.4332 0.0503535C23.4332 0.0503535 23.4332 0.0334775 23.4503 0.0166016C23.4503 0.0334775 23.4674 0.0503535 23.4674 0.0503535C23.6386 0.489129 23.7926 0.927904 23.9638 1.38356C23.9809 1.41731 23.9809 1.41731 24.0152 1.41731C24.2377 1.41731 24.4602 1.43418 24.6998 1.43418C24.9223 1.43418 25.1449 1.45106 25.3674 1.45106C25.3674 1.45106 25.3845 1.45106 25.4016 1.45106C25.3503 1.50169 25.2989 1.55232 25.2304 1.58607C24.9223 1.85608 24.5971 2.10922 24.289 2.37924C24.2719 2.39611 24.2719 2.41299 24.2719 2.42987C24.3917 2.88552 24.5115 3.34117 24.6485 3.79682C24.6485 3.8137 24.6485 3.8137 24.6485 3.83057C24.2377 3.54368 23.844 3.27366 23.4503 3.00365C23.0566 3.27366 22.6629 3.56056 22.2521 3.83057C22.2521 3.8137 22.2521 3.79682 22.2521 3.79682C22.372 3.34117 22.4918 2.88552 22.6287 2.42987C22.6287 2.39611 22.6287 2.39611 22.6116 2.36236C22.2521 2.05859 21.8927 1.75483 21.5332 1.45106C21.5332 1.45106 21.5161 1.45106 21.5161 1.43418Z" fill="#195A9E"/>
</g>
<defs>
<clipPath id="clip0_2000_674">
<rect width="45" height="43" fill="white"/>
</clipPath>
</defs>
</svg>
